<?xml version="1.0" standalone="no"?><!DOCTYPE svg PUBLIC "-//W3C//DTD SVG 1.1//EN" "http://www.w3.org/Graphics/SVG/1.1/DTD/svg11.dtd"><svg t="1735895564379" class="icon" viewBox="0 0 1024 1024" version="1.1" xmlns="http://www.w3.org/2000/svg" p-id="3876" xmlns:xlink="http://www.w3.org/1999/xlink" width="128" height="128"><path d="M343.3984 273.408H285.696a8.2432 8.2432 0 0 1-8.192-8.192c0-41.1648 9.0112-78.9504 26.624-111.2576A189.6448 189.6448 0 0 1 380.3136 77.824C412.5696 60.2624 450.4064 51.2 491.52 51.2h16.4864c41.1136 0 78.848 9.0624 111.2064 26.624a189.6448 189.6448 0 0 1 76.1344 76.1344c17.5616 32.3072 26.624 70.0928 26.624 111.2064 0 4.5568-3.6864 8.192-8.192 8.2432h-57.6512a8.2944 8.2944 0 0 1-8.192-8.192c0-29.184-6.1952-54.6304-17.6128-75.6224a115.968 115.968 0 0 0-46.6944-46.7456c-20.8896-11.52-46.5408-17.5616-75.6224-17.5616H491.52c-29.0816 0-54.6304 6.144-75.6224 17.5616-19.7632 10.752-35.9936 26.9312-46.6944 46.7456-11.52 20.8896-17.5616 46.4896-17.5616 75.5712a8.2432 8.2432 0 0 1-8.2432 8.2432zM940.032 511.8976h-152.2688v-102.912a142.9504 142.9504 0 0 0 143.0016-142.9504 8.2432 8.2432 0 0 0-8.2432-8.192h-61.696a8.2432 8.2432 0 0 0-8.2944 8.192c0 35.7888-28.9792 64.768-64.768 64.768H211.712a64.8192 64.8192 0 0 1-64.8704-64.768 8.2432 8.2432 0 0 0-8.192-8.192H76.8512a8.2432 8.2432 0 0 0-8.192 8.192 142.9504 142.9504 0 0 0 142.9504 143.0016v102.912H59.4432a8.2432 8.2432 0 0 0-8.2432 8.192v57.6c0 4.5056 3.7376 8.192 8.2432 8.192h152.2688v98.816c0 6.656 0.2048 13.312 0.7168 19.8144a197.632 197.632 0 0 0-120.064 181.8112c0 4.5056 3.6864 8.192 8.192 8.192H158.208c4.5056 0 8.192-3.6352 8.192-8.192 0-45.4656 24.576-85.2992 61.3376-106.7008a289.4336 289.4336 0 0 0 126.7712 153.8048c44.032 25.8048 94.208 39.424 145.2544 39.3216 52.992 0 102.656-14.336 145.3568-39.3216a289.4848 289.4848 0 0 0 126.72-153.8048 123.392 123.392 0 0 1 61.184 106.7008c0 4.5056 3.7376 8.192 8.2944 8.192h57.6a8.192 8.192 0 0 0 8.192-8.192 197.632 197.632 0 0 0-120.064-181.76 299.52 299.52 0 0 0 0.768-19.8656v-98.816h152.2688c4.5056 0 8.192-3.6864 8.192-8.192v-57.6a8.2432 8.2432 0 0 0-8.192-8.192z m-230.4512 172.8512a210.176 210.176 0 0 1-209.8688 209.92 208.5888 208.5888 0 0 1-105.8304-28.672 210.2784 210.2784 0 0 1-75.4176-75.3664 208.5888 208.5888 0 0 1-28.6208-105.8816V409.088h419.7376v275.712z" fill="#666666" p-id="3877"></path></svg>